<svg width="360" height="800" viewBox="0 0 360 800" fill="none" xmlns="http://www.w3.org/2000/svg">
<g clip-path="url(#clip0_951_9689)">
<rect width="360" height="800" fill="#FFFDFA"/>
<rect width="360" height="800" fill="#FFFDFA"/>
<path d="M101.655 191.638C101.598 191.065 101.354 190.62 100.923 190.303C100.492 189.985 99.9077 189.827 99.169 189.827C98.6671 189.827 98.2434 189.898 97.8977 190.04C97.5521 190.177 97.2869 190.369 97.1023 190.615C96.9223 190.861 96.8324 191.141 96.8324 191.453C96.8229 191.714 96.8774 191.941 96.9957 192.135C97.1188 192.329 97.2869 192.497 97.5 192.639C97.7131 192.777 97.9593 192.897 98.2386 193.001C98.518 193.101 98.8163 193.186 99.1335 193.257L100.44 193.57C101.075 193.712 101.657 193.901 102.188 194.138C102.718 194.375 103.177 194.666 103.565 195.011C103.954 195.357 104.254 195.764 104.467 196.233C104.685 196.702 104.796 197.239 104.801 197.845C104.796 198.735 104.569 199.507 104.119 200.161C103.674 200.809 103.03 201.313 102.188 201.673C101.349 202.028 100.339 202.206 99.1548 202.206C97.9806 202.206 96.9579 202.026 96.0866 201.666C95.2202 201.306 94.5431 200.774 94.0554 200.068C93.5724 199.358 93.3191 198.48 93.2955 197.433H96.2713C96.3045 197.921 96.4441 198.328 96.6903 198.655C96.9413 198.977 97.2751 199.221 97.6918 199.386C98.1132 199.547 98.589 199.628 99.1193 199.628C99.6402 199.628 100.092 199.552 100.476 199.401C100.864 199.249 101.165 199.038 101.378 198.768C101.591 198.499 101.697 198.188 101.697 197.838C101.697 197.511 101.6 197.237 101.406 197.014C101.217 196.792 100.938 196.602 100.568 196.446C100.204 196.29 99.7562 196.148 99.2259 196.02L97.642 195.622C96.4157 195.324 95.4474 194.857 94.7372 194.223C94.027 193.589 93.6742 192.734 93.679 191.659C93.6742 190.778 93.9086 190.009 94.3821 189.351C94.8603 188.693 95.5161 188.179 96.3494 187.81C97.1828 187.44 98.1297 187.256 99.1903 187.256C100.27 187.256 101.212 187.44 102.017 187.81C102.827 188.179 103.456 188.693 103.906 189.351C104.356 190.009 104.588 190.771 104.602 191.638H101.655ZM111.784 202.213C110.662 202.213 109.696 201.986 108.887 201.531C108.082 201.072 107.462 200.423 107.026 199.585C106.59 198.742 106.373 197.746 106.373 196.595C106.373 195.473 106.59 194.488 107.026 193.641C107.462 192.793 108.075 192.133 108.865 191.659C109.661 191.186 110.594 190.949 111.664 190.949C112.383 190.949 113.053 191.065 113.674 191.297C114.299 191.524 114.843 191.867 115.307 192.327C115.776 192.786 116.141 193.364 116.401 194.06C116.661 194.751 116.792 195.561 116.792 196.489V197.32H107.58V195.445H113.944C113.944 195.009 113.849 194.623 113.659 194.287C113.47 193.951 113.207 193.688 112.871 193.499C112.54 193.304 112.154 193.207 111.713 193.207C111.254 193.207 110.847 193.314 110.492 193.527C110.141 193.735 109.867 194.017 109.668 194.372C109.469 194.723 109.367 195.113 109.363 195.544V197.327C109.363 197.866 109.462 198.333 109.661 198.726C109.864 199.119 110.151 199.422 110.52 199.635C110.89 199.848 111.328 199.955 111.834 199.955C112.17 199.955 112.478 199.907 112.757 199.812C113.037 199.718 113.276 199.576 113.475 199.386C113.674 199.197 113.825 198.965 113.929 198.69L116.728 198.875C116.586 199.547 116.294 200.134 115.854 200.636C115.418 201.134 114.855 201.522 114.164 201.801C113.477 202.076 112.684 202.213 111.784 202.213ZM124.569 191.091V193.364H117.999V191.091H124.569ZM119.49 188.477H122.516V198.648C122.516 198.927 122.559 199.145 122.644 199.301C122.729 199.453 122.847 199.559 122.999 199.621C123.155 199.682 123.335 199.713 123.539 199.713C123.681 199.713 123.823 199.701 123.965 199.678C124.107 199.649 124.216 199.628 124.292 199.614L124.767 201.865C124.616 201.912 124.403 201.967 124.128 202.028C123.854 202.095 123.52 202.135 123.127 202.149C122.398 202.178 121.758 202.08 121.209 201.858C120.665 201.635 120.241 201.29 119.938 200.821C119.635 200.352 119.486 199.76 119.49 199.045V188.477ZM131.168 206.091V191.091H134.151V192.923H134.286C134.419 192.63 134.611 192.331 134.862 192.028C135.117 191.721 135.449 191.465 135.856 191.261C136.268 191.053 136.779 190.949 137.39 190.949C138.185 190.949 138.919 191.157 139.592 191.574C140.264 191.986 140.801 192.608 141.204 193.442C141.606 194.27 141.808 195.31 141.808 196.56C141.808 197.777 141.611 198.804 141.218 199.642C140.83 200.475 140.299 201.107 139.627 201.538C138.96 201.964 138.211 202.178 137.383 202.178C136.796 202.178 136.296 202.08 135.884 201.886C135.477 201.692 135.143 201.448 134.883 201.155C134.622 200.857 134.424 200.556 134.286 200.253H134.194V206.091H131.168ZM134.13 196.545C134.13 197.194 134.22 197.76 134.4 198.243C134.58 198.726 134.84 199.102 135.181 199.372C135.522 199.637 135.936 199.77 136.424 199.77C136.916 199.77 137.333 199.635 137.674 199.365C138.015 199.09 138.273 198.712 138.448 198.229C138.628 197.741 138.718 197.18 138.718 196.545C138.718 195.916 138.63 195.362 138.455 194.884C138.28 194.405 138.022 194.031 137.681 193.761C137.34 193.491 136.921 193.357 136.424 193.357C135.932 193.357 135.515 193.487 135.174 193.747C134.838 194.008 134.58 194.377 134.4 194.855C134.22 195.333 134.13 195.897 134.13 196.545ZM143.825 202V191.091H146.758V192.994H146.871C147.07 192.317 147.404 191.806 147.873 191.46C148.342 191.11 148.881 190.935 149.492 190.935C149.644 190.935 149.807 190.944 149.982 190.963C150.157 190.982 150.311 191.008 150.444 191.041V193.726C150.302 193.683 150.105 193.645 149.854 193.612C149.603 193.579 149.374 193.562 149.165 193.562C148.72 193.562 148.323 193.66 147.972 193.854C147.627 194.043 147.352 194.308 147.148 194.649C146.95 194.99 146.85 195.383 146.85 195.828V202H143.825ZM156.429 202.213C155.326 202.213 154.372 201.979 153.567 201.51C152.767 201.036 152.149 200.378 151.713 199.536C151.278 198.688 151.06 197.705 151.06 196.588C151.06 195.461 151.278 194.476 151.713 193.634C152.149 192.786 152.767 192.128 153.567 191.659C154.372 191.186 155.326 190.949 156.429 190.949C157.533 190.949 158.484 191.186 159.284 191.659C160.089 192.128 160.71 192.786 161.145 193.634C161.581 194.476 161.799 195.461 161.799 196.588C161.799 197.705 161.581 198.688 161.145 199.536C160.71 200.378 160.089 201.036 159.284 201.51C158.484 201.979 157.533 202.213 156.429 202.213ZM156.444 199.869C156.945 199.869 157.364 199.727 157.701 199.443C158.037 199.154 158.29 198.761 158.461 198.264C158.636 197.767 158.723 197.201 158.723 196.567C158.723 195.932 158.636 195.366 158.461 194.869C158.29 194.372 158.037 193.979 157.701 193.69C157.364 193.402 156.945 193.257 156.444 193.257C155.937 193.257 155.511 193.402 155.165 193.69C154.824 193.979 154.566 194.372 154.391 194.869C154.221 195.366 154.135 195.932 154.135 196.567C154.135 197.201 154.221 197.767 154.391 198.264C154.566 198.761 154.824 199.154 155.165 199.443C155.511 199.727 155.937 199.869 156.444 199.869ZM169.632 191.091V193.364H162.9V191.091H169.632ZM164.441 202V190.303C164.441 189.512 164.595 188.856 164.902 188.335C165.215 187.814 165.641 187.424 166.181 187.163C166.721 186.903 167.334 186.773 168.02 186.773C168.484 186.773 168.908 186.808 169.292 186.879C169.68 186.95 169.969 187.014 170.158 187.071L169.618 189.344C169.5 189.306 169.353 189.27 169.178 189.237C169.007 189.204 168.832 189.188 168.652 189.188C168.207 189.188 167.897 189.292 167.722 189.5C167.547 189.704 167.459 189.99 167.459 190.359V202H164.441ZM171.481 202V191.091H174.506V202H171.481ZM173.001 189.685C172.551 189.685 172.165 189.536 171.843 189.237C171.526 188.934 171.367 188.572 171.367 188.151C171.367 187.734 171.526 187.376 171.843 187.078C172.165 186.775 172.551 186.624 173.001 186.624C173.451 186.624 173.834 186.775 174.151 187.078C174.473 187.376 174.634 187.734 174.634 188.151C174.634 188.572 174.473 188.934 174.151 189.237C173.834 189.536 173.451 189.685 173.001 189.685ZM179.956 187.455V202H176.93V187.455H179.956ZM187.351 202.213C186.229 202.213 185.263 201.986 184.453 201.531C183.648 201.072 183.028 200.423 182.592 199.585C182.157 198.742 181.939 197.746 181.939 196.595C181.939 195.473 182.157 194.488 182.592 193.641C183.028 192.793 183.641 192.133 184.432 191.659C185.227 191.186 186.16 190.949 187.23 190.949C187.95 190.949 188.62 191.065 189.24 191.297C189.865 191.524 190.41 191.867 190.874 192.327C191.342 192.786 191.707 193.364 191.967 194.06C192.228 194.751 192.358 195.561 192.358 196.489V197.32H183.146V195.445H189.51C189.51 195.009 189.415 194.623 189.226 194.287C189.036 193.951 188.774 193.688 188.438 193.499C188.106 193.304 187.72 193.207 187.28 193.207C186.821 193.207 186.413 193.314 186.058 193.527C185.708 193.735 185.433 194.017 185.234 194.372C185.036 194.723 184.934 195.113 184.929 195.544V197.327C184.929 197.866 185.028 198.333 185.227 198.726C185.431 199.119 185.717 199.422 186.087 199.635C186.456 199.848 186.894 199.955 187.401 199.955C187.737 199.955 188.045 199.907 188.324 199.812C188.603 199.718 188.842 199.576 189.041 199.386C189.24 199.197 189.392 198.965 189.496 198.69L192.294 198.875C192.152 199.547 191.861 200.134 191.42 200.636C190.985 201.134 190.421 201.522 189.73 201.801C189.044 202.076 188.25 202.213 187.351 202.213ZM198.961 206.091V191.091H201.944V192.923H202.079C202.212 192.63 202.404 192.331 202.654 192.028C202.91 191.721 203.242 191.465 203.649 191.261C204.061 191.053 204.572 190.949 205.183 190.949C205.978 190.949 206.712 191.157 207.385 191.574C208.057 191.986 208.594 192.608 208.997 193.442C209.399 194.27 209.6 195.31 209.6 196.56C209.6 197.777 209.404 198.804 209.011 199.642C208.623 200.475 208.092 201.107 207.42 201.538C206.752 201.964 206.004 202.178 205.176 202.178C204.589 202.178 204.089 202.08 203.677 201.886C203.27 201.692 202.936 201.448 202.676 201.155C202.415 200.857 202.217 200.556 202.079 200.253H201.987V206.091H198.961ZM201.923 196.545C201.923 197.194 202.013 197.76 202.193 198.243C202.373 198.726 202.633 199.102 202.974 199.372C203.315 199.637 203.729 199.77 204.217 199.77C204.709 199.77 205.126 199.635 205.467 199.365C205.808 199.09 206.066 198.712 206.241 198.229C206.421 197.741 206.511 197.18 206.511 196.545C206.511 195.916 206.423 195.362 206.248 194.884C206.073 194.405 205.815 194.031 205.474 193.761C205.133 193.491 204.714 193.357 204.217 193.357C203.725 193.357 203.308 193.487 202.967 193.747C202.631 194.008 202.373 194.377 202.193 194.855C202.013 195.333 201.923 195.897 201.923 196.545ZM211.618 202V191.091H214.643V202H211.618ZM213.137 189.685C212.688 189.685 212.302 189.536 211.98 189.237C211.663 188.934 211.504 188.572 211.504 188.151C211.504 187.734 211.663 187.376 211.98 187.078C212.302 186.775 212.688 186.624 213.137 186.624C213.587 186.624 213.971 186.775 214.288 187.078C214.61 187.376 214.771 187.734 214.771 188.151C214.771 188.572 214.61 188.934 214.288 189.237C213.971 189.536 213.587 189.685 213.137 189.685ZM221.996 202.213C220.878 202.213 219.917 201.976 219.112 201.503C218.312 201.025 217.696 200.362 217.266 199.514C216.839 198.667 216.626 197.691 216.626 196.588C216.626 195.471 216.842 194.491 217.273 193.648C217.708 192.8 218.326 192.14 219.126 191.666C219.927 191.188 220.878 190.949 221.982 190.949C222.933 190.949 223.767 191.122 224.482 191.467C225.196 191.813 225.762 192.298 226.179 192.923C226.596 193.548 226.825 194.282 226.868 195.125H224.013C223.932 194.58 223.719 194.143 223.374 193.811C223.033 193.475 222.585 193.307 222.031 193.307C221.562 193.307 221.153 193.435 220.803 193.69C220.457 193.941 220.187 194.308 219.993 194.791C219.799 195.274 219.702 195.859 219.702 196.545C219.702 197.241 219.796 197.833 219.986 198.321C220.18 198.809 220.452 199.18 220.803 199.436C221.153 199.692 221.562 199.82 222.031 199.82C222.377 199.82 222.687 199.749 222.962 199.607C223.241 199.464 223.471 199.259 223.651 198.989C223.835 198.714 223.956 198.385 224.013 198.001H226.868C226.821 198.835 226.593 199.569 226.186 200.203C225.784 200.833 225.227 201.325 224.517 201.68C223.807 202.036 222.966 202.213 221.996 202.213ZM234.608 191.091V193.364H228.038V191.091H234.608ZM229.529 188.477H232.555V198.648C232.555 198.927 232.598 199.145 232.683 199.301C232.768 199.453 232.886 199.559 233.038 199.621C233.194 199.682 233.374 199.713 233.578 199.713C233.72 199.713 233.862 199.701 234.004 199.678C234.146 199.649 234.255 199.628 234.331 199.614L234.806 201.865C234.655 201.912 234.442 201.967 234.167 202.028C233.893 202.095 233.559 202.135 233.166 202.149C232.437 202.178 231.797 202.08 231.248 201.858C230.704 201.635 230.28 201.29 229.977 200.821C229.674 200.352 229.525 199.76 229.529 199.045V188.477ZM243.574 197.355V191.091H246.6V202H243.695V200.018H243.581C243.335 200.658 242.926 201.171 242.353 201.56C241.784 201.948 241.091 202.142 240.272 202.142C239.542 202.142 238.901 201.976 238.347 201.645C237.793 201.313 237.36 200.842 237.047 200.232C236.739 199.621 236.583 198.889 236.578 198.037V191.091H239.604V197.497C239.609 198.141 239.782 198.65 240.123 199.024C240.463 199.398 240.92 199.585 241.493 199.585C241.858 199.585 242.199 199.502 242.516 199.337C242.833 199.166 243.089 198.915 243.283 198.584C243.482 198.252 243.579 197.843 243.574 197.355ZM249.02 202V191.091H251.953V192.994H252.067C252.266 192.317 252.599 191.806 253.068 191.46C253.537 191.11 254.077 190.935 254.688 190.935C254.839 190.935 255.002 190.944 255.178 190.963C255.353 190.982 255.507 191.008 255.639 191.041V193.726C255.497 193.683 255.301 193.645 255.05 193.612C254.799 193.579 254.569 193.562 254.361 193.562C253.916 193.562 253.518 193.66 253.168 193.854C252.822 194.043 252.547 194.308 252.344 194.649C252.145 194.99 252.045 195.383 252.045 195.828V202H249.02ZM261.667 202.213C260.545 202.213 259.579 201.986 258.77 201.531C257.965 201.072 257.344 200.423 256.909 199.585C256.473 198.742 256.255 197.746 256.255 196.595C256.255 195.473 256.473 194.488 256.909 193.641C257.344 192.793 257.958 192.133 258.748 191.659C259.544 191.186 260.476 190.949 261.547 190.949C262.266 190.949 262.936 191.065 263.556 191.297C264.181 191.524 264.726 191.867 265.19 192.327C265.659 192.786 266.023 193.364 266.284 194.06C266.544 194.751 266.674 195.561 266.674 196.489V197.32H257.463V195.445H263.826C263.826 195.009 263.732 194.623 263.542 194.287C263.353 193.951 263.09 193.688 262.754 193.499C262.422 193.304 262.037 193.207 261.596 193.207C261.137 193.207 260.73 193.314 260.375 193.527C260.024 193.735 259.75 194.017 259.551 194.372C259.352 194.723 259.25 195.113 259.245 195.544V197.327C259.245 197.866 259.345 198.333 259.544 198.726C259.747 199.119 260.034 199.422 260.403 199.635C260.772 199.848 261.21 199.955 261.717 199.955C262.053 199.955 262.361 199.907 262.64 199.812C262.92 199.718 263.159 199.576 263.358 199.386C263.556 199.197 263.708 198.965 263.812 198.69L266.61 198.875C266.468 199.547 266.177 200.134 265.737 200.636C265.301 201.134 264.738 201.522 264.047 201.801C263.36 202.076 262.567 202.213 261.667 202.213Z" fill="#1D1D1D"/>
<path d="M32.419 249V237.364H36.5668C37.4721 237.364 38.2221 237.528 38.8168 237.858C39.4115 238.187 39.8565 238.638 40.152 239.21C40.4474 239.778 40.5952 240.419 40.5952 241.131C40.5952 241.847 40.4455 242.491 40.1463 243.062C39.8509 243.631 39.4039 244.081 38.8054 244.415C38.2107 244.744 37.4626 244.909 36.5611 244.909H33.7088V243.42H36.402C36.974 243.42 37.438 243.322 37.794 243.125C38.1501 242.924 38.4115 242.652 38.5781 242.307C38.7448 241.962 38.8281 241.57 38.8281 241.131C38.8281 240.691 38.7448 240.301 38.5781 239.96C38.4115 239.619 38.1482 239.352 37.7884 239.159C37.4323 238.966 36.9626 238.869 36.3793 238.869H34.1747V249H32.419ZM44.2159 237.364V249H42.517V237.364H44.2159ZM50.2628 249.176C49.4029 249.176 48.6624 248.992 48.0412 248.625C47.4238 248.254 46.9465 247.733 46.6094 247.062C46.276 246.388 46.1094 245.598 46.1094 244.693C46.1094 243.799 46.276 243.011 46.6094 242.33C46.9465 241.648 47.4162 241.116 48.0185 240.733C48.6245 240.35 49.3329 240.159 50.1435 240.159C50.6359 240.159 51.1132 240.241 51.5753 240.403C52.0374 240.566 52.4522 240.822 52.8196 241.17C53.187 241.519 53.4768 241.972 53.6889 242.528C53.901 243.081 54.0071 243.754 54.0071 244.545V245.148H47.0696V243.875H52.3423C52.3423 243.428 52.2514 243.032 52.0696 242.688C51.8878 242.339 51.6321 242.064 51.3026 241.864C50.9768 241.663 50.5942 241.562 50.1548 241.562C49.6776 241.562 49.2609 241.68 48.9048 241.915C48.5526 242.146 48.2798 242.449 48.0866 242.824C47.8973 243.195 47.8026 243.598 47.8026 244.034V245.028C47.8026 245.612 47.9048 246.108 48.1094 246.517C48.3177 246.926 48.6075 247.239 48.9787 247.455C49.3499 247.667 49.7836 247.773 50.2798 247.773C50.6018 247.773 50.8954 247.727 51.1605 247.636C51.4257 247.542 51.6548 247.402 51.848 247.216C52.0412 247.03 52.1889 246.801 52.2912 246.528L53.8991 246.818C53.7704 247.292 53.5393 247.706 53.206 248.062C52.8764 248.415 52.4616 248.689 51.9616 248.886C51.4654 249.08 50.8991 249.176 50.2628 249.176ZM58.4318 249.193C57.8788 249.193 57.3788 249.091 56.9318 248.886C56.4848 248.678 56.1307 248.377 55.8693 247.983C55.6117 247.589 55.483 247.106 55.483 246.534C55.483 246.042 55.5777 245.636 55.767 245.318C55.9564 245 56.2121 244.748 56.5341 244.562C56.8561 244.377 57.2159 244.237 57.6136 244.142C58.0114 244.047 58.4167 243.975 58.8295 243.926C59.3523 243.866 59.7765 243.816 60.1023 243.778C60.428 243.737 60.6648 243.67 60.8125 243.58C60.9602 243.489 61.0341 243.341 61.0341 243.136V243.097C61.0341 242.6 60.8939 242.216 60.6136 241.943C60.3371 241.67 59.9242 241.534 59.375 241.534C58.803 241.534 58.3523 241.661 58.0227 241.915C57.697 242.165 57.4716 242.443 57.3466 242.75L55.75 242.386C55.9394 241.856 56.2159 241.428 56.5795 241.102C56.947 240.773 57.3693 240.534 57.8466 240.386C58.3239 240.235 58.8258 240.159 59.3523 240.159C59.7008 240.159 60.0701 240.201 60.4602 240.284C60.8542 240.364 61.2216 240.511 61.5625 240.727C61.9072 240.943 62.1894 241.252 62.4091 241.653C62.6288 242.051 62.7386 242.568 62.7386 243.205V249H61.0795V247.807H61.0114C60.9015 248.027 60.7367 248.242 60.517 248.455C60.2973 248.667 60.0152 248.843 59.6705 248.983C59.3258 249.123 58.9129 249.193 58.4318 249.193ZM58.8011 247.83C59.2708 247.83 59.6723 247.737 60.0057 247.551C60.3428 247.366 60.5985 247.123 60.7727 246.824C60.9508 246.521 61.0398 246.197 61.0398 245.852V244.727C60.9792 244.788 60.8617 244.845 60.6875 244.898C60.517 244.947 60.322 244.991 60.1023 245.028C59.8826 245.062 59.6686 245.095 59.4602 245.125C59.2519 245.152 59.0777 245.174 58.9375 245.193C58.608 245.235 58.3068 245.305 58.0341 245.403C57.7652 245.502 57.5492 245.644 57.3864 245.83C57.2273 246.011 57.1477 246.254 57.1477 246.557C57.1477 246.977 57.303 247.295 57.6136 247.511C57.9242 247.723 58.3201 247.83 58.8011 247.83ZM71.5412 242.403L70.0014 242.676C69.937 242.479 69.8348 242.292 69.6946 242.114C69.5582 241.936 69.3726 241.79 69.1378 241.676C68.9029 241.562 68.6094 241.506 68.2571 241.506C67.776 241.506 67.3745 241.614 67.0526 241.83C66.7306 242.042 66.5696 242.316 66.5696 242.653C66.5696 242.945 66.6776 243.18 66.8935 243.358C67.1094 243.536 67.4579 243.682 67.9389 243.795L69.3253 244.114C70.1283 244.299 70.7268 244.585 71.1207 244.972C71.5147 245.358 71.7116 245.86 71.7116 246.477C71.7116 247 71.5601 247.466 71.2571 247.875C70.9579 248.28 70.5393 248.598 70.0014 248.83C69.4673 249.061 68.848 249.176 68.1435 249.176C67.1662 249.176 66.3688 248.968 65.7514 248.551C65.134 248.131 64.7552 247.534 64.6151 246.761L66.2571 246.511C66.3594 246.939 66.5696 247.263 66.8878 247.483C67.206 247.699 67.6207 247.807 68.1321 247.807C68.6889 247.807 69.134 247.691 69.4673 247.46C69.8007 247.225 69.9673 246.939 69.9673 246.602C69.9673 246.33 69.8651 246.1 69.6605 245.915C69.4598 245.729 69.151 245.589 68.7344 245.494L67.2571 245.17C66.4427 244.985 65.8404 244.689 65.4503 244.284C65.0639 243.879 64.8707 243.366 64.8707 242.744C64.8707 242.229 65.0147 241.778 65.3026 241.392C65.5904 241.006 65.9882 240.705 66.4957 240.489C67.0033 240.269 67.5848 240.159 68.2401 240.159C69.1832 240.159 69.9257 240.364 70.4673 240.773C71.009 241.178 71.367 241.722 71.5412 242.403ZM77.3409 249.176C76.4811 249.176 75.7405 248.992 75.1193 248.625C74.5019 248.254 74.0246 247.733 73.6875 247.062C73.3542 246.388 73.1875 245.598 73.1875 244.693C73.1875 243.799 73.3542 243.011 73.6875 242.33C74.0246 241.648 74.4943 241.116 75.0966 240.733C75.7027 240.35 76.411 240.159 77.2216 240.159C77.714 240.159 78.1913 240.241 78.6534 240.403C79.1155 240.566 79.5303 240.822 79.8977 241.17C80.2652 241.519 80.5549 241.972 80.767 242.528C80.9792 243.081 81.0852 243.754 81.0852 244.545V245.148H74.1477V243.875H79.4205C79.4205 243.428 79.3295 243.032 79.1477 242.688C78.9659 242.339 78.7102 242.064 78.3807 241.864C78.0549 241.663 77.6723 241.562 77.233 241.562C76.7557 241.562 76.339 241.68 75.983 241.915C75.6307 242.146 75.358 242.449 75.1648 242.824C74.9754 243.195 74.8807 243.598 74.8807 244.034V245.028C74.8807 245.612 74.983 246.108 75.1875 246.517C75.3958 246.926 75.6856 247.239 76.0568 247.455C76.428 247.667 76.8617 247.773 77.358 247.773C77.6799 247.773 77.9735 247.727 78.2386 247.636C78.5038 247.542 78.733 247.402 78.9261 247.216C79.1193 247.03 79.267 246.801 79.3693 246.528L80.9773 246.818C80.8485 247.292 80.6174 247.706 80.2841 248.062C79.9545 248.415 79.5398 248.689 79.0398 248.886C78.5436 249.08 77.9773 249.176 77.3409 249.176ZM92.733 245.381V240.273H94.4375V249H92.767V247.489H92.6761C92.4754 247.955 92.1534 248.343 91.7102 248.653C91.2708 248.96 90.7235 249.114 90.0682 249.114C89.5076 249.114 89.0114 248.991 88.5795 248.744C88.1515 248.494 87.8144 248.125 87.5682 247.636C87.3258 247.148 87.2045 246.544 87.2045 245.824V240.273H88.9034V245.619C88.9034 246.214 89.0682 246.687 89.3977 247.04C89.7273 247.392 90.1553 247.568 90.6818 247.568C91 247.568 91.3163 247.489 91.6307 247.33C91.9489 247.17 92.2121 246.93 92.4205 246.608C92.6326 246.286 92.7367 245.877 92.733 245.381ZM96.7202 252.273V240.273H98.3793V241.688H98.5213C98.6198 241.506 98.7618 241.295 98.9474 241.057C99.133 240.818 99.3906 240.61 99.7202 240.432C100.05 240.25 100.485 240.159 101.027 240.159C101.732 240.159 102.36 240.337 102.913 240.693C103.466 241.049 103.9 241.562 104.214 242.233C104.533 242.903 104.692 243.71 104.692 244.653C104.692 245.597 104.535 246.405 104.22 247.08C103.906 247.75 103.474 248.267 102.925 248.631C102.375 248.991 101.749 249.17 101.044 249.17C100.514 249.17 100.08 249.081 99.7429 248.903C99.4096 248.725 99.1482 248.517 98.9588 248.278C98.7694 248.04 98.6236 247.828 98.5213 247.642H98.419V252.273H96.7202ZM98.3849 244.636C98.3849 245.25 98.474 245.788 98.652 246.25C98.83 246.712 99.0876 247.074 99.4247 247.335C99.7618 247.593 100.175 247.722 100.663 247.722C101.171 247.722 101.595 247.587 101.936 247.318C102.277 247.045 102.535 246.676 102.709 246.21C102.887 245.744 102.976 245.22 102.976 244.636C102.976 244.061 102.889 243.544 102.714 243.085C102.544 242.627 102.286 242.265 101.942 242C101.601 241.735 101.175 241.602 100.663 241.602C100.171 241.602 99.7543 241.729 99.4134 241.983C99.0762 242.237 98.8205 242.591 98.6463 243.045C98.4721 243.5 98.3849 244.03 98.3849 244.636ZM108.294 237.364V249H106.595V237.364H108.294ZM114.256 249.176C113.438 249.176 112.723 248.989 112.114 248.614C111.504 248.239 111.03 247.714 110.693 247.04C110.356 246.366 110.188 245.578 110.188 244.676C110.188 243.771 110.356 242.979 110.693 242.301C111.03 241.623 111.504 241.097 112.114 240.722C112.723 240.347 113.438 240.159 114.256 240.159C115.074 240.159 115.788 240.347 116.398 240.722C117.008 241.097 117.481 241.623 117.818 242.301C118.155 242.979 118.324 243.771 118.324 244.676C118.324 245.578 118.155 246.366 117.818 247.04C117.481 247.714 117.008 248.239 116.398 248.614C115.788 248.989 115.074 249.176 114.256 249.176ZM114.261 247.75C114.792 247.75 115.231 247.61 115.58 247.33C115.928 247.049 116.186 246.676 116.352 246.21C116.523 245.744 116.608 245.231 116.608 244.67C116.608 244.114 116.523 243.602 116.352 243.136C116.186 242.667 115.928 242.29 115.58 242.006C115.231 241.722 114.792 241.58 114.261 241.58C113.727 241.58 113.284 241.722 112.932 242.006C112.583 242.29 112.324 242.667 112.153 243.136C111.987 243.602 111.903 244.114 111.903 244.67C111.903 245.231 111.987 245.744 112.153 246.21C112.324 246.676 112.583 247.049 112.932 247.33C113.284 247.61 113.727 247.75 114.261 247.75ZM122.76 249.193C122.207 249.193 121.707 249.091 121.26 248.886C120.813 248.678 120.459 248.377 120.197 247.983C119.94 247.589 119.811 247.106 119.811 246.534C119.811 246.042 119.906 245.636 120.095 245.318C120.285 245 120.54 244.748 120.862 244.562C121.184 244.377 121.544 244.237 121.942 244.142C122.339 244.047 122.745 243.975 123.158 243.926C123.68 243.866 124.105 243.816 124.43 243.778C124.756 243.737 124.993 243.67 125.141 243.58C125.288 243.489 125.362 243.341 125.362 243.136V243.097C125.362 242.6 125.222 242.216 124.942 241.943C124.665 241.67 124.252 241.534 123.703 241.534C123.131 241.534 122.68 241.661 122.351 241.915C122.025 242.165 121.8 242.443 121.675 242.75L120.078 242.386C120.268 241.856 120.544 241.428 120.908 241.102C121.275 240.773 121.697 240.534 122.175 240.386C122.652 240.235 123.154 240.159 123.68 240.159C124.029 240.159 124.398 240.201 124.788 240.284C125.182 240.364 125.55 240.511 125.891 240.727C126.235 240.943 126.518 241.252 126.737 241.653C126.957 242.051 127.067 242.568 127.067 243.205V249H125.408V247.807H125.339C125.23 248.027 125.065 248.242 124.845 248.455C124.625 248.667 124.343 248.843 123.999 248.983C123.654 249.123 123.241 249.193 122.76 249.193ZM123.129 247.83C123.599 247.83 124 247.737 124.334 247.551C124.671 247.366 124.927 247.123 125.101 246.824C125.279 246.521 125.368 246.197 125.368 245.852V244.727C125.307 244.788 125.19 244.845 125.016 244.898C124.845 244.947 124.65 244.991 124.43 245.028C124.211 245.062 123.997 245.095 123.788 245.125C123.58 245.152 123.406 245.174 123.266 245.193C122.936 245.235 122.635 245.305 122.362 245.403C122.093 245.502 121.877 245.644 121.714 245.83C121.555 246.011 121.476 246.254 121.476 246.557C121.476 246.977 121.631 247.295 121.942 247.511C122.252 247.723 122.648 247.83 123.129 247.83ZM132.597 249.17C131.892 249.17 131.263 248.991 130.71 248.631C130.161 248.267 129.729 247.75 129.415 247.08C129.104 246.405 128.949 245.597 128.949 244.653C128.949 243.71 129.106 242.903 129.42 242.233C129.739 241.562 130.174 241.049 130.727 240.693C131.28 240.337 131.907 240.159 132.608 240.159C133.15 240.159 133.585 240.25 133.915 240.432C134.248 240.61 134.506 240.818 134.688 241.057C134.873 241.295 135.017 241.506 135.119 241.688H135.222V237.364H136.92V249H135.261V247.642H135.119C135.017 247.828 134.869 248.04 134.676 248.278C134.487 248.517 134.225 248.725 133.892 248.903C133.559 249.081 133.127 249.17 132.597 249.17ZM132.972 247.722C133.46 247.722 133.873 247.593 134.21 247.335C134.551 247.074 134.809 246.712 134.983 246.25C135.161 245.788 135.25 245.25 135.25 244.636C135.25 244.03 135.163 243.5 134.989 243.045C134.814 242.591 134.559 242.237 134.222 241.983C133.884 241.729 133.468 241.602 132.972 241.602C132.46 241.602 132.034 241.735 131.693 242C131.352 242.265 131.095 242.627 130.92 243.085C130.75 243.544 130.665 244.061 130.665 244.636C130.665 245.22 130.752 245.744 130.926 246.21C131.1 246.676 131.358 247.045 131.699 247.318C132.044 247.587 132.468 247.722 132.972 247.722ZM146.119 249.193C145.566 249.193 145.066 249.091 144.619 248.886C144.172 248.678 143.818 248.377 143.557 247.983C143.299 247.589 143.17 247.106 143.17 246.534C143.17 246.042 143.265 245.636 143.455 245.318C143.644 245 143.9 244.748 144.222 244.562C144.544 244.377 144.903 244.237 145.301 244.142C145.699 244.047 146.104 243.975 146.517 243.926C147.04 243.866 147.464 243.816 147.79 243.778C148.116 243.737 148.352 243.67 148.5 243.58C148.648 243.489 148.722 243.341 148.722 243.136V243.097C148.722 242.6 148.581 242.216 148.301 241.943C148.025 241.67 147.612 241.534 147.062 241.534C146.491 241.534 146.04 241.661 145.71 241.915C145.384 242.165 145.159 242.443 145.034 242.75L143.438 242.386C143.627 241.856 143.903 241.428 144.267 241.102C144.634 240.773 145.057 240.534 145.534 240.386C146.011 240.235 146.513 240.159 147.04 240.159C147.388 240.159 147.758 240.201 148.148 240.284C148.542 240.364 148.909 240.511 149.25 240.727C149.595 240.943 149.877 241.252 150.097 241.653C150.316 242.051 150.426 242.568 150.426 243.205V249H148.767V247.807H148.699C148.589 248.027 148.424 248.242 148.205 248.455C147.985 248.667 147.703 248.843 147.358 248.983C147.013 249.123 146.6 249.193 146.119 249.193ZM146.489 247.83C146.958 247.83 147.36 247.737 147.693 247.551C148.03 247.366 148.286 247.123 148.46 246.824C148.638 246.521 148.727 246.197 148.727 245.852V244.727C148.667 244.788 148.549 244.845 148.375 244.898C148.205 244.947 148.009 244.991 147.79 245.028C147.57 245.062 147.356 245.095 147.148 245.125C146.939 245.152 146.765 245.174 146.625 245.193C146.295 245.235 145.994 245.305 145.722 245.403C145.453 245.502 145.237 245.644 145.074 245.83C144.915 246.011 144.835 246.254 144.835 246.557C144.835 246.977 144.991 247.295 145.301 247.511C145.612 247.723 146.008 247.83 146.489 247.83ZM160.599 249.176C159.755 249.176 159.027 248.985 158.418 248.602C157.812 248.216 157.346 247.684 157.02 247.006C156.694 246.328 156.531 245.551 156.531 244.676C156.531 243.79 156.698 243.008 157.031 242.33C157.365 241.648 157.834 241.116 158.44 240.733C159.046 240.35 159.76 240.159 160.582 240.159C161.245 240.159 161.836 240.282 162.355 240.528C162.874 240.771 163.293 241.112 163.611 241.551C163.933 241.991 164.124 242.504 164.185 243.091H162.531C162.44 242.682 162.232 242.33 161.906 242.034C161.584 241.739 161.152 241.591 160.611 241.591C160.137 241.591 159.723 241.716 159.366 241.966C159.014 242.212 158.74 242.564 158.543 243.023C158.346 243.477 158.247 244.015 158.247 244.636C158.247 245.273 158.344 245.822 158.537 246.284C158.73 246.746 159.003 247.104 159.355 247.358C159.711 247.612 160.13 247.739 160.611 247.739C160.933 247.739 161.224 247.68 161.486 247.562C161.751 247.441 161.973 247.269 162.151 247.045C162.332 246.822 162.459 246.553 162.531 246.239H164.185C164.124 246.803 163.94 247.307 163.634 247.75C163.327 248.193 162.916 248.542 162.401 248.795C161.889 249.049 161.289 249.176 160.599 249.176ZM167.7 237.364V249H166.001V237.364H167.7ZM173.747 249.176C172.887 249.176 172.147 248.992 171.526 248.625C170.908 248.254 170.431 247.733 170.094 247.062C169.76 246.388 169.594 245.598 169.594 244.693C169.594 243.799 169.76 243.011 170.094 242.33C170.431 241.648 170.901 241.116 171.503 240.733C172.109 240.35 172.817 240.159 173.628 240.159C174.12 240.159 174.598 240.241 175.06 240.403C175.522 240.566 175.937 240.822 176.304 241.17C176.671 241.519 176.961 241.972 177.173 242.528C177.385 243.081 177.491 243.754 177.491 244.545V245.148H170.554V243.875H175.827C175.827 243.428 175.736 243.032 175.554 242.688C175.372 242.339 175.116 242.064 174.787 241.864C174.461 241.663 174.079 241.562 173.639 241.562C173.162 241.562 172.745 241.68 172.389 241.915C172.037 242.146 171.764 242.449 171.571 242.824C171.382 243.195 171.287 243.598 171.287 244.034V245.028C171.287 245.612 171.389 246.108 171.594 246.517C171.802 246.926 172.092 247.239 172.463 247.455C172.834 247.667 173.268 247.773 173.764 247.773C174.086 247.773 174.38 247.727 174.645 247.636C174.91 247.542 175.139 247.402 175.332 247.216C175.526 247.03 175.673 246.801 175.776 246.528L177.384 246.818C177.255 247.292 177.024 247.706 176.69 248.062C176.361 248.415 175.946 248.689 175.446 248.886C174.95 249.08 174.384 249.176 173.747 249.176ZM181.916 249.193C181.363 249.193 180.863 249.091 180.416 248.886C179.969 248.678 179.615 248.377 179.354 247.983C179.096 247.589 178.967 247.106 178.967 246.534C178.967 246.042 179.062 245.636 179.251 245.318C179.441 245 179.696 244.748 180.018 244.562C180.34 244.377 180.7 244.237 181.098 244.142C181.496 244.047 181.901 243.975 182.314 243.926C182.837 243.866 183.261 243.816 183.587 243.778C183.912 243.737 184.149 243.67 184.297 243.58C184.445 243.489 184.518 243.341 184.518 243.136V243.097C184.518 242.6 184.378 242.216 184.098 241.943C183.821 241.67 183.409 241.534 182.859 241.534C182.287 241.534 181.837 241.661 181.507 241.915C181.181 242.165 180.956 242.443 180.831 242.75L179.234 242.386C179.424 241.856 179.7 241.428 180.064 241.102C180.431 240.773 180.854 240.534 181.331 240.386C181.808 240.235 182.31 240.159 182.837 240.159C183.185 240.159 183.554 240.201 183.945 240.284C184.339 240.364 184.706 240.511 185.047 240.727C185.392 240.943 185.674 241.252 185.893 241.653C186.113 242.051 186.223 242.568 186.223 243.205V249H184.564V247.807H184.496C184.386 248.027 184.221 248.242 184.001 248.455C183.782 248.667 183.5 248.843 183.155 248.983C182.81 249.123 182.397 249.193 181.916 249.193ZM182.286 247.83C182.755 247.83 183.157 247.737 183.49 247.551C183.827 247.366 184.083 247.123 184.257 246.824C184.435 246.521 184.524 246.197 184.524 245.852V244.727C184.464 244.788 184.346 244.845 184.172 244.898C184.001 244.947 183.806 244.991 183.587 245.028C183.367 245.062 183.153 245.095 182.945 245.125C182.736 245.152 182.562 245.174 182.422 245.193C182.092 245.235 181.791 245.305 181.518 245.403C181.25 245.502 181.034 245.644 180.871 245.83C180.712 246.011 180.632 246.254 180.632 246.557C180.632 246.977 180.787 247.295 181.098 247.511C181.409 247.723 181.804 247.83 182.286 247.83ZM188.486 249V240.273H190.128V241.659H190.219C190.378 241.189 190.658 240.82 191.06 240.551C191.465 240.278 191.923 240.142 192.435 240.142C192.541 240.142 192.666 240.146 192.81 240.153C192.957 240.161 193.073 240.17 193.156 240.182V241.807C193.088 241.788 192.967 241.767 192.793 241.744C192.618 241.718 192.444 241.705 192.27 241.705C191.868 241.705 191.51 241.79 191.196 241.96C190.885 242.127 190.639 242.36 190.457 242.659C190.276 242.955 190.185 243.292 190.185 243.67V249H188.486ZM198.861 252.273V240.273H200.52V241.688H200.662C200.76 241.506 200.902 241.295 201.088 241.057C201.274 240.818 201.531 240.61 201.861 240.432C202.19 240.25 202.626 240.159 203.168 240.159C203.872 240.159 204.501 240.337 205.054 240.693C205.607 241.049 206.041 241.562 206.355 242.233C206.673 242.903 206.832 243.71 206.832 244.653C206.832 245.597 206.675 246.405 206.361 247.08C206.046 247.75 205.615 248.267 205.065 248.631C204.516 248.991 203.889 249.17 203.185 249.17C202.654 249.17 202.221 249.081 201.884 248.903C201.55 248.725 201.289 248.517 201.099 248.278C200.91 248.04 200.764 247.828 200.662 247.642H200.56V252.273H198.861ZM200.526 244.636C200.526 245.25 200.615 245.788 200.793 246.25C200.971 246.712 201.228 247.074 201.565 247.335C201.902 247.593 202.315 247.722 202.804 247.722C203.312 247.722 203.736 247.587 204.077 247.318C204.418 247.045 204.675 246.676 204.849 246.21C205.027 245.744 205.116 245.22 205.116 244.636C205.116 244.061 205.029 243.544 204.855 243.085C204.685 242.627 204.427 242.265 204.082 242C203.741 241.735 203.315 241.602 202.804 241.602C202.312 241.602 201.895 241.729 201.554 241.983C201.217 242.237 200.961 242.591 200.787 243.045C200.613 243.5 200.526 244.03 200.526 244.636ZM208.736 249V240.273H210.435V249H208.736ZM209.594 238.926C209.298 238.926 209.045 238.828 208.832 238.631C208.624 238.43 208.52 238.191 208.52 237.915C208.52 237.634 208.624 237.396 208.832 237.199C209.045 236.998 209.298 236.898 209.594 236.898C209.889 236.898 210.141 236.998 210.349 237.199C210.562 237.396 210.668 237.634 210.668 237.915C210.668 238.191 210.562 238.43 210.349 238.631C210.141 238.828 209.889 238.926 209.594 238.926ZM216.396 249.176C215.552 249.176 214.824 248.985 214.214 248.602C213.608 248.216 213.143 247.684 212.817 247.006C212.491 246.328 212.328 245.551 212.328 244.676C212.328 243.79 212.495 243.008 212.828 242.33C213.161 241.648 213.631 241.116 214.237 240.733C214.843 240.35 215.557 240.159 216.379 240.159C217.042 240.159 217.633 240.282 218.152 240.528C218.671 240.771 219.089 241.112 219.408 241.551C219.73 241.991 219.921 242.504 219.982 243.091H218.328C218.237 242.682 218.029 242.33 217.703 242.034C217.381 241.739 216.949 241.591 216.408 241.591C215.934 241.591 215.519 241.716 215.163 241.966C214.811 242.212 214.536 242.564 214.339 243.023C214.143 243.477 214.044 244.015 214.044 244.636C214.044 245.273 214.141 245.822 214.334 246.284C214.527 246.746 214.8 247.104 215.152 247.358C215.508 247.612 215.927 247.739 216.408 247.739C216.73 247.739 217.021 247.68 217.283 247.562C217.548 247.441 217.769 247.269 217.947 247.045C218.129 246.822 218.256 246.553 218.328 246.239H219.982C219.921 246.803 219.737 247.307 219.43 247.75C219.124 248.193 218.713 248.542 218.197 248.795C217.686 249.049 217.086 249.176 216.396 249.176ZM225.872 240.273V241.636H221.105V240.273H225.872ZM222.384 238.182H224.082V246.438C224.082 246.767 224.132 247.015 224.23 247.182C224.329 247.345 224.455 247.456 224.611 247.517C224.77 247.574 224.942 247.602 225.128 247.602C225.264 247.602 225.384 247.593 225.486 247.574C225.588 247.555 225.668 247.54 225.724 247.528L226.031 248.932C225.933 248.97 225.793 249.008 225.611 249.045C225.429 249.087 225.202 249.11 224.929 249.114C224.482 249.121 224.065 249.042 223.679 248.875C223.293 248.708 222.98 248.451 222.741 248.102C222.503 247.754 222.384 247.316 222.384 246.79V238.182ZM233.28 245.381V240.273H234.984V249H233.314V247.489H233.223C233.022 247.955 232.7 248.343 232.257 248.653C231.818 248.96 231.27 249.114 230.615 249.114C230.054 249.114 229.558 248.991 229.126 248.744C228.698 248.494 228.361 248.125 228.115 247.636C227.873 247.148 227.751 246.544 227.751 245.824V240.273H229.45V245.619C229.45 246.214 229.615 246.687 229.945 247.04C230.274 247.392 230.702 247.568 231.229 247.568C231.547 247.568 231.863 247.489 232.178 247.33C232.496 247.17 232.759 246.93 232.967 246.608C233.179 246.286 233.284 245.877 233.28 245.381ZM237.267 249V240.273H238.909V241.659H239C239.159 241.189 239.439 240.82 239.841 240.551C240.246 240.278 240.705 240.142 241.216 240.142C241.322 240.142 241.447 240.146 241.591 240.153C241.739 240.161 241.854 240.17 241.938 240.182V241.807C241.869 241.788 241.748 241.767 241.574 241.744C241.4 241.718 241.225 241.705 241.051 241.705C240.65 241.705 240.292 241.79 239.977 241.96C239.667 242.127 239.42 242.36 239.239 242.659C239.057 242.955 238.966 243.292 238.966 243.67V249H237.267ZM246.857 249.176C245.997 249.176 245.256 248.992 244.635 248.625C244.018 248.254 243.54 247.733 243.203 247.062C242.87 246.388 242.703 245.598 242.703 244.693C242.703 243.799 242.87 243.011 243.203 242.33C243.54 241.648 244.01 241.116 244.612 240.733C245.218 240.35 245.927 240.159 246.737 240.159C247.23 240.159 247.707 240.241 248.169 240.403C248.631 240.566 249.046 240.822 249.413 241.17C249.781 241.519 250.071 241.972 250.283 242.528C250.495 243.081 250.601 243.754 250.601 244.545V245.148H243.663V243.875H248.936C248.936 243.428 248.845 243.032 248.663 242.688C248.482 242.339 248.226 242.064 247.896 241.864C247.571 241.663 247.188 241.562 246.749 241.562C246.271 241.562 245.855 241.68 245.499 241.915C245.146 242.146 244.874 242.449 244.68 242.824C244.491 243.195 244.396 243.598 244.396 244.034V245.028C244.396 245.612 244.499 246.108 244.703 246.517C244.911 246.926 245.201 247.239 245.572 247.455C245.944 247.667 246.377 247.773 246.874 247.773C247.196 247.773 247.489 247.727 247.754 247.636C248.019 247.542 248.249 247.402 248.442 247.216C248.635 247.03 248.783 246.801 248.885 246.528L250.493 246.818C250.364 247.292 250.133 247.706 249.8 248.062C249.47 248.415 249.055 248.689 248.555 248.886C248.059 249.08 247.493 249.176 246.857 249.176ZM260.396 249.176C259.578 249.176 258.864 248.989 258.254 248.614C257.644 248.239 257.171 247.714 256.834 247.04C256.497 246.366 256.328 245.578 256.328 244.676C256.328 243.771 256.497 242.979 256.834 242.301C257.171 241.623 257.644 241.097 258.254 240.722C258.864 240.347 259.578 240.159 260.396 240.159C261.214 240.159 261.929 240.347 262.538 240.722C263.148 241.097 263.622 241.623 263.959 242.301C264.296 242.979 264.464 243.771 264.464 244.676C264.464 245.578 264.296 246.366 263.959 247.04C263.622 247.714 263.148 248.239 262.538 248.614C261.929 248.989 261.214 249.176 260.396 249.176ZM260.402 247.75C260.932 247.75 261.372 247.61 261.72 247.33C262.069 247.049 262.326 246.676 262.493 246.21C262.663 245.744 262.749 245.231 262.749 244.67C262.749 244.114 262.663 243.602 262.493 243.136C262.326 242.667 262.069 242.29 261.72 242.006C261.372 241.722 260.932 241.58 260.402 241.58C259.868 241.58 259.425 241.722 259.072 242.006C258.724 242.29 258.464 242.667 258.294 243.136C258.127 243.602 258.044 244.114 258.044 244.67C258.044 245.231 258.127 245.744 258.294 246.21C258.464 246.676 258.724 247.049 259.072 247.33C259.425 247.61 259.868 247.75 260.402 247.75ZM270.514 240.273V241.636H265.582V240.273H270.514ZM266.935 249V239.261C266.935 238.716 267.054 238.263 267.293 237.903C267.531 237.54 267.848 237.269 268.241 237.091C268.635 236.909 269.063 236.818 269.526 236.818C269.866 236.818 270.158 236.847 270.401 236.903C270.643 236.956 270.823 237.006 270.94 237.051L270.543 238.426C270.463 238.403 270.361 238.377 270.236 238.347C270.111 238.312 269.959 238.295 269.781 238.295C269.368 238.295 269.073 238.398 268.895 238.602C268.721 238.807 268.634 239.102 268.634 239.489V249H266.935ZM277.575 252.273C277.321 252.273 277.09 252.252 276.882 252.21C276.674 252.172 276.518 252.131 276.416 252.085L276.825 250.693C277.136 250.777 277.412 250.813 277.655 250.801C277.897 250.79 278.111 250.699 278.297 250.528C278.486 250.358 278.653 250.08 278.797 249.693L279.007 249.114L275.814 240.273H277.632L279.842 247.045H279.933L282.143 240.273H283.967L280.371 250.165C280.204 250.619 279.992 251.004 279.734 251.318C279.477 251.636 279.17 251.875 278.814 252.034C278.458 252.193 278.045 252.273 277.575 252.273ZM288.943 249.176C288.125 249.176 287.411 248.989 286.801 248.614C286.191 248.239 285.718 247.714 285.381 247.04C285.044 246.366 284.875 245.578 284.875 244.676C284.875 243.771 285.044 242.979 285.381 242.301C285.718 241.623 286.191 241.097 286.801 240.722C287.411 240.347 288.125 240.159 288.943 240.159C289.761 240.159 290.475 240.347 291.085 240.722C291.695 241.097 292.169 241.623 292.506 242.301C292.843 242.979 293.011 243.771 293.011 244.676C293.011 245.578 292.843 246.366 292.506 247.04C292.169 247.714 291.695 248.239 291.085 248.614C290.475 248.989 289.761 249.176 288.943 249.176ZM288.949 247.75C289.479 247.75 289.919 247.61 290.267 247.33C290.616 247.049 290.873 246.676 291.04 246.21C291.21 245.744 291.295 245.231 291.295 244.67C291.295 244.114 291.21 243.602 291.04 243.136C290.873 242.667 290.616 242.29 290.267 242.006C289.919 241.722 289.479 241.58 288.949 241.58C288.415 241.58 287.972 241.722 287.619 242.006C287.271 242.29 287.011 242.667 286.841 243.136C286.674 243.602 286.591 244.114 286.591 244.67C286.591 245.231 286.674 245.744 286.841 246.21C287.011 246.676 287.271 247.049 287.619 247.33C287.972 247.61 288.415 247.75 288.949 247.75ZM300.436 245.381V240.273H302.141V249H300.47V247.489H300.379C300.179 247.955 299.857 248.343 299.413 248.653C298.974 248.96 298.427 249.114 297.771 249.114C297.211 249.114 296.714 248.991 296.283 248.744C295.855 248.494 295.518 248.125 295.271 247.636C295.029 247.148 294.908 246.544 294.908 245.824V240.273H296.607V245.619C296.607 246.214 296.771 246.687 297.101 247.04C297.43 247.392 297.858 247.568 298.385 247.568C298.703 247.568 299.019 247.489 299.334 247.33C299.652 247.17 299.915 246.93 300.124 246.608C300.336 246.286 300.44 245.877 300.436 245.381ZM312.811 240.273V241.636H307.879V240.273H312.811ZM309.232 249V239.261C309.232 238.716 309.351 238.263 309.589 237.903C309.828 237.54 310.144 237.269 310.538 237.091C310.932 236.909 311.36 236.818 311.822 236.818C312.163 236.818 312.455 236.847 312.697 236.903C312.94 236.956 313.12 237.006 313.237 237.051L312.839 238.426C312.76 238.403 312.658 238.377 312.533 238.347C312.408 238.312 312.256 238.295 312.078 238.295C311.665 238.295 311.37 238.398 311.192 238.602C311.018 238.807 310.93 239.102 310.93 239.489V249H309.232ZM317.896 249.176C317.078 249.176 316.364 248.989 315.754 248.614C315.144 248.239 314.671 247.714 314.334 247.04C313.997 246.366 313.828 245.578 313.828 244.676C313.828 243.771 313.997 242.979 314.334 242.301C314.671 241.623 315.144 241.097 315.754 240.722C316.364 240.347 317.078 240.159 317.896 240.159C318.714 240.159 319.429 240.347 320.038 240.722C320.648 241.097 321.122 241.623 321.459 242.301C321.796 242.979 321.964 243.771 321.964 244.676C321.964 245.578 321.796 246.366 321.459 247.04C321.122 247.714 320.648 248.239 320.038 248.614C319.429 248.989 318.714 249.176 317.896 249.176ZM317.902 247.75C318.432 247.75 318.872 247.61 319.22 247.33C319.569 247.049 319.826 246.676 319.993 246.21C320.163 245.744 320.249 245.231 320.249 244.67C320.249 244.114 320.163 243.602 319.993 243.136C319.826 242.667 319.569 242.29 319.22 242.006C318.872 241.722 318.432 241.58 317.902 241.58C317.368 241.58 316.925 241.722 316.572 242.006C316.224 242.29 315.964 242.667 315.794 243.136C315.627 243.602 315.544 244.114 315.544 244.67C315.544 245.231 315.627 245.744 315.794 246.21C315.964 246.676 316.224 247.049 316.572 247.33C316.925 247.61 317.368 247.75 317.902 247.75ZM323.861 249V240.273H325.503V241.659H325.594C325.753 241.189 326.033 240.82 326.435 240.551C326.84 240.278 327.298 240.142 327.81 240.142C327.916 240.142 328.041 240.146 328.185 240.153C328.332 240.161 328.448 240.17 328.531 240.182V241.807C328.463 241.788 328.342 241.767 328.168 241.744C327.993 241.718 327.819 241.705 327.645 241.705C327.243 241.705 326.885 241.79 326.571 241.96C326.26 242.127 326.014 242.36 325.832 242.659C325.651 242.955 325.56 243.292 325.56 243.67V249H323.861ZM138.763 276.273C138.509 276.273 138.278 276.252 138.07 276.21C137.861 276.172 137.706 276.131 137.604 276.085L138.013 274.693C138.323 274.777 138.6 274.813 138.842 274.801C139.085 274.79 139.299 274.699 139.484 274.528C139.674 274.358 139.84 274.08 139.984 273.693L140.195 273.114L137.001 264.273H138.82L141.03 271.045H141.121L143.331 264.273H145.155L141.558 274.165C141.392 274.619 141.179 275.004 140.922 275.318C140.664 275.636 140.357 275.875 140.001 276.034C139.645 276.193 139.232 276.273 138.763 276.273ZM150.131 273.176C149.313 273.176 148.598 272.989 147.989 272.614C147.379 272.239 146.905 271.714 146.568 271.04C146.231 270.366 146.062 269.578 146.062 268.676C146.062 267.771 146.231 266.979 146.568 266.301C146.905 265.623 147.379 265.097 147.989 264.722C148.598 264.347 149.313 264.159 150.131 264.159C150.949 264.159 151.663 264.347 152.273 264.722C152.883 265.097 153.356 265.623 153.693 266.301C154.03 266.979 154.199 267.771 154.199 268.676C154.199 269.578 154.03 270.366 153.693 271.04C153.356 271.714 152.883 272.239 152.273 272.614C151.663 272.989 150.949 273.176 150.131 273.176ZM150.136 271.75C150.667 271.75 151.106 271.61 151.455 271.33C151.803 271.049 152.061 270.676 152.227 270.21C152.398 269.744 152.483 269.231 152.483 268.67C152.483 268.114 152.398 267.602 152.227 267.136C152.061 266.667 151.803 266.29 151.455 266.006C151.106 265.722 150.667 265.58 150.136 265.58C149.602 265.58 149.159 265.722 148.807 266.006C148.458 266.29 148.199 266.667 148.028 267.136C147.862 267.602 147.778 268.114 147.778 268.67C147.778 269.231 147.862 269.744 148.028 270.21C148.199 270.676 148.458 271.049 148.807 271.33C149.159 271.61 149.602 271.75 150.136 271.75ZM161.624 269.381V264.273H163.328V273H161.658V271.489H161.567C161.366 271.955 161.044 272.343 160.601 272.653C160.161 272.96 159.614 273.114 158.959 273.114C158.398 273.114 157.902 272.991 157.47 272.744C157.042 272.494 156.705 272.125 156.459 271.636C156.216 271.148 156.095 270.544 156.095 269.824V264.273H157.794V269.619C157.794 270.214 157.959 270.687 158.288 271.04C158.618 271.392 159.046 271.568 159.572 271.568C159.891 271.568 160.207 271.489 160.521 271.33C160.839 271.17 161.103 270.93 161.311 270.608C161.523 270.286 161.627 269.877 161.624 269.381ZM165.611 273V264.273H167.253V265.659H167.344C167.503 265.189 167.783 264.82 168.185 264.551C168.59 264.278 169.048 264.142 169.56 264.142C169.666 264.142 169.791 264.146 169.935 264.153C170.082 264.161 170.198 264.17 170.281 264.182V265.807C170.213 265.788 170.092 265.767 169.918 265.744C169.743 265.718 169.569 265.705 169.395 265.705C168.993 265.705 168.635 265.79 168.321 265.96C168.01 266.127 167.764 266.36 167.582 266.659C167.401 266.955 167.31 267.292 167.31 267.67V273H165.611ZM175.986 276.273V264.273H177.645V265.688H177.787C177.885 265.506 178.027 265.295 178.213 265.057C178.399 264.818 178.656 264.61 178.986 264.432C179.315 264.25 179.751 264.159 180.293 264.159C180.997 264.159 181.626 264.337 182.179 264.693C182.732 265.049 183.166 265.562 183.48 266.233C183.798 266.903 183.957 267.71 183.957 268.653C183.957 269.597 183.8 270.405 183.486 271.08C183.171 271.75 182.74 272.267 182.19 272.631C181.641 272.991 181.014 273.17 180.31 273.17C179.779 273.17 179.346 273.081 179.009 272.903C178.675 272.725 178.414 272.517 178.224 272.278C178.035 272.04 177.889 271.828 177.787 271.642H177.685V276.273H175.986ZM177.651 268.636C177.651 269.25 177.74 269.788 177.918 270.25C178.096 270.712 178.353 271.074 178.69 271.335C179.027 271.593 179.44 271.722 179.929 271.722C180.437 271.722 180.861 271.587 181.202 271.318C181.543 271.045 181.8 270.676 181.974 270.21C182.152 269.744 182.241 269.22 182.241 268.636C182.241 268.061 182.154 267.544 181.98 267.085C181.81 266.627 181.552 266.265 181.207 266C180.866 265.735 180.44 265.602 179.929 265.602C179.437 265.602 179.02 265.729 178.679 265.983C178.342 266.237 178.086 266.591 177.912 267.045C177.738 267.5 177.651 268.03 177.651 268.636ZM185.861 273V264.273H187.503V265.659H187.594C187.753 265.189 188.033 264.82 188.435 264.551C188.84 264.278 189.298 264.142 189.81 264.142C189.916 264.142 190.041 264.146 190.185 264.153C190.332 264.161 190.448 264.17 190.531 264.182V265.807C190.463 265.788 190.342 265.767 190.168 265.744C189.993 265.718 189.819 265.705 189.645 265.705C189.243 265.705 188.885 265.79 188.571 265.96C188.26 266.127 188.014 266.36 187.832 266.659C187.651 266.955 187.56 267.292 187.56 267.67V273H185.861ZM195.365 273.176C194.547 273.176 193.833 272.989 193.223 272.614C192.613 272.239 192.14 271.714 191.803 271.04C191.465 270.366 191.297 269.578 191.297 268.676C191.297 267.771 191.465 266.979 191.803 266.301C192.14 265.623 192.613 265.097 193.223 264.722C193.833 264.347 194.547 264.159 195.365 264.159C196.183 264.159 196.897 264.347 197.507 264.722C198.117 265.097 198.59 265.623 198.928 266.301C199.265 266.979 199.433 267.771 199.433 268.676C199.433 269.578 199.265 270.366 198.928 271.04C198.59 271.714 198.117 272.239 197.507 272.614C196.897 272.989 196.183 273.176 195.365 273.176ZM195.371 271.75C195.901 271.75 196.34 271.61 196.689 271.33C197.037 271.049 197.295 270.676 197.462 270.21C197.632 269.744 197.717 269.231 197.717 268.67C197.717 268.114 197.632 267.602 197.462 267.136C197.295 266.667 197.037 266.29 196.689 266.006C196.34 265.722 195.901 265.58 195.371 265.58C194.837 265.58 194.393 265.722 194.041 266.006C193.693 266.29 193.433 266.667 193.263 267.136C193.096 267.602 193.013 268.114 193.013 268.67C193.013 269.231 193.096 269.744 193.263 270.21C193.433 270.676 193.693 271.049 194.041 271.33C194.393 271.61 194.837 271.75 195.371 271.75ZM205.483 264.273V265.636H200.551V264.273H205.483ZM201.903 273V263.261C201.903 262.716 202.023 262.263 202.261 261.903C202.5 261.54 202.816 261.269 203.21 261.091C203.604 260.909 204.032 260.818 204.494 260.818C204.835 260.818 205.127 260.847 205.369 260.903C205.612 260.956 205.792 261.006 205.909 261.051L205.511 262.426C205.432 262.403 205.33 262.377 205.205 262.347C205.08 262.312 204.928 262.295 204.75 262.295C204.337 262.295 204.042 262.398 203.864 262.602C203.689 262.807 203.602 263.102 203.602 263.489V273H201.903ZM207.236 273V264.273H208.935V273H207.236ZM208.094 262.926C207.798 262.926 207.545 262.828 207.332 262.631C207.124 262.43 207.02 262.191 207.02 261.915C207.02 261.634 207.124 261.396 207.332 261.199C207.545 260.998 207.798 260.898 208.094 260.898C208.389 260.898 208.641 260.998 208.849 261.199C209.062 261.396 209.168 261.634 209.168 261.915C209.168 262.191 209.062 262.43 208.849 262.631C208.641 262.828 208.389 262.926 208.094 262.926ZM212.919 261.364V273H211.22V261.364H212.919ZM218.966 273.176C218.106 273.176 217.366 272.992 216.744 272.625C216.127 272.254 215.65 271.733 215.312 271.062C214.979 270.388 214.812 269.598 214.812 268.693C214.812 267.799 214.979 267.011 215.312 266.33C215.65 265.648 216.119 265.116 216.722 264.733C217.328 264.35 218.036 264.159 218.847 264.159C219.339 264.159 219.816 264.241 220.278 264.403C220.741 264.566 221.155 264.822 221.523 265.17C221.89 265.519 222.18 265.972 222.392 266.528C222.604 267.081 222.71 267.754 222.71 268.545V269.148H215.773V267.875H221.045C221.045 267.428 220.955 267.032 220.773 266.688C220.591 266.339 220.335 266.064 220.006 265.864C219.68 265.663 219.297 265.562 218.858 265.562C218.381 265.562 217.964 265.68 217.608 265.915C217.256 266.146 216.983 266.449 216.79 266.824C216.6 267.195 216.506 267.598 216.506 268.034V269.028C216.506 269.612 216.608 270.108 216.812 270.517C217.021 270.926 217.311 271.239 217.682 271.455C218.053 271.667 218.487 271.773 218.983 271.773C219.305 271.773 219.598 271.727 219.864 271.636C220.129 271.542 220.358 271.402 220.551 271.216C220.744 271.03 220.892 270.801 220.994 270.528L222.602 270.818C222.473 271.292 222.242 271.706 221.909 272.062C221.58 272.415 221.165 272.689 220.665 272.886C220.169 273.08 219.602 273.176 218.966 273.176Z" fill="#333333"/>
<g filter="url(#filter0_dd_951_9689)">
<rect x="31" y="329" width="298" height="56" rx="20" fill="#F78F1E" shape-rendering="crispEdges"/>
<mask id="mask0_951_9689" style="mask-type:alpha" maskUnits="userSpaceOnUse" x="107" y="343" width="28" height="28">
<rect x="107" y="343" width="28" height="28" fill="#D9D9D9"/>
</mask>
<g mask="url(#mask0_951_9689)">
<path d="M119.083 361.334V351.146L115.833 354.396L114.083 352.584L120.333 346.334L126.583 352.584L124.833 354.396L121.583 351.146V361.334H119.083ZM112.833 366.334C112.146 366.334 111.557 366.089 111.067 365.6C110.578 365.11 110.333 364.521 110.333 363.834V360.084H112.833V363.834H127.833V360.084H130.333V363.834C130.333 364.521 130.088 365.11 129.599 365.6C129.109 366.089 128.521 366.334 127.833 366.334H112.833Z" fill="#FFFDFA"/>
</g>
<path d="M153.675 351.364H156.136V358.92C156.136 359.769 155.933 360.511 155.528 361.148C155.126 361.784 154.564 362.28 153.84 362.636C153.117 362.989 152.274 363.165 151.312 363.165C150.346 363.165 149.501 362.989 148.778 362.636C148.054 362.28 147.492 361.784 147.09 361.148C146.689 360.511 146.488 359.769 146.488 358.92V351.364H148.948V358.71C148.948 359.153 149.045 359.547 149.238 359.892C149.435 360.237 149.711 360.508 150.067 360.705C150.424 360.902 150.838 361 151.312 361C151.789 361 152.204 360.902 152.556 360.705C152.912 360.508 153.187 360.237 153.38 359.892C153.577 359.547 153.675 359.153 153.675 358.71V351.364ZM158.114 366.273V354.273H160.501V355.739H160.609C160.715 355.504 160.868 355.265 161.069 355.023C161.273 354.777 161.539 354.572 161.864 354.409C162.194 354.242 162.603 354.159 163.092 354.159C163.728 354.159 164.315 354.326 164.853 354.659C165.391 354.989 165.821 355.487 166.143 356.153C166.465 356.816 166.626 357.648 166.626 358.648C166.626 359.621 166.469 360.443 166.154 361.114C165.844 361.78 165.419 362.286 164.881 362.631C164.347 362.972 163.749 363.142 163.086 363.142C162.616 363.142 162.217 363.064 161.887 362.909C161.561 362.754 161.294 362.559 161.086 362.324C160.878 362.085 160.719 361.845 160.609 361.602H160.535V366.273H158.114ZM160.484 358.636C160.484 359.155 160.556 359.608 160.7 359.994C160.844 360.381 161.052 360.682 161.325 360.898C161.597 361.11 161.929 361.216 162.319 361.216C162.713 361.216 163.046 361.108 163.319 360.892C163.592 360.672 163.798 360.369 163.938 359.983C164.082 359.593 164.154 359.144 164.154 358.636C164.154 358.133 164.084 357.689 163.944 357.307C163.804 356.924 163.597 356.625 163.325 356.409C163.052 356.193 162.717 356.085 162.319 356.085C161.925 356.085 161.592 356.189 161.319 356.398C161.05 356.606 160.844 356.902 160.7 357.284C160.556 357.667 160.484 358.117 160.484 358.636ZM170.66 351.364V363H168.239V351.364H170.66ZM176.542 363.17C175.659 363.17 174.896 362.983 174.252 362.608C173.612 362.229 173.118 361.703 172.769 361.028C172.421 360.35 172.246 359.564 172.246 358.67C172.246 357.769 172.421 356.981 172.769 356.307C173.118 355.629 173.612 355.102 174.252 354.727C174.896 354.348 175.659 354.159 176.542 354.159C177.424 354.159 178.186 354.348 178.826 354.727C179.47 355.102 179.966 355.629 180.315 356.307C180.663 356.981 180.837 357.769 180.837 358.67C180.837 359.564 180.663 360.35 180.315 361.028C179.966 361.703 179.47 362.229 178.826 362.608C178.186 362.983 177.424 363.17 176.542 363.17ZM176.553 361.295C176.955 361.295 177.29 361.182 177.559 360.955C177.828 360.723 178.031 360.409 178.167 360.011C178.307 359.614 178.377 359.161 178.377 358.653C178.377 358.146 178.307 357.693 178.167 357.295C178.031 356.898 177.828 356.583 177.559 356.352C177.29 356.121 176.955 356.006 176.553 356.006C176.148 356.006 175.807 356.121 175.531 356.352C175.258 356.583 175.051 356.898 174.911 357.295C174.775 357.693 174.707 358.146 174.707 358.653C174.707 359.161 174.775 359.614 174.911 360.011C175.051 360.409 175.258 360.723 175.531 360.955C175.807 361.182 176.148 361.295 176.553 361.295ZM184.9 363.165C184.343 363.165 183.847 363.068 183.411 362.875C182.976 362.678 182.631 362.388 182.377 362.006C182.127 361.619 182.002 361.138 182.002 360.562C182.002 360.078 182.091 359.67 182.269 359.341C182.447 359.011 182.69 358.746 182.996 358.545C183.303 358.345 183.652 358.193 184.042 358.091C184.436 357.989 184.849 357.917 185.281 357.875C185.788 357.822 186.197 357.773 186.508 357.727C186.818 357.678 187.044 357.606 187.184 357.511C187.324 357.417 187.394 357.277 187.394 357.091V357.057C187.394 356.697 187.281 356.419 187.053 356.222C186.83 356.025 186.512 355.926 186.099 355.926C185.663 355.926 185.317 356.023 185.059 356.216C184.801 356.405 184.631 356.644 184.548 356.932L182.309 356.75C182.423 356.22 182.646 355.761 182.979 355.375C183.313 354.985 183.743 354.686 184.269 354.477C184.799 354.265 185.413 354.159 186.11 354.159C186.595 354.159 187.059 354.216 187.502 354.33C187.949 354.443 188.345 354.619 188.69 354.858C189.038 355.097 189.313 355.403 189.513 355.778C189.714 356.15 189.815 356.595 189.815 357.114V363H187.519V361.79H187.451C187.311 362.062 187.123 362.303 186.888 362.511C186.654 362.716 186.371 362.877 186.042 362.994C185.712 363.108 185.332 363.165 184.9 363.165ZM185.593 361.494C185.949 361.494 186.263 361.424 186.536 361.284C186.809 361.14 187.023 360.947 187.178 360.705C187.334 360.462 187.411 360.187 187.411 359.881V358.955C187.335 359.004 187.231 359.049 187.099 359.091C186.97 359.129 186.824 359.165 186.661 359.199C186.498 359.229 186.335 359.258 186.173 359.284C186.01 359.307 185.862 359.328 185.729 359.347C185.445 359.388 185.197 359.455 184.985 359.545C184.773 359.636 184.608 359.759 184.491 359.915C184.373 360.066 184.315 360.256 184.315 360.483C184.315 360.812 184.434 361.064 184.673 361.239C184.915 361.409 185.222 361.494 185.593 361.494ZM194.908 363.142C194.246 363.142 193.645 362.972 193.107 362.631C192.573 362.286 192.149 361.78 191.835 361.114C191.524 360.443 191.369 359.621 191.369 358.648C191.369 357.648 191.53 356.816 191.852 356.153C192.174 355.487 192.602 354.989 193.136 354.659C193.674 354.326 194.263 354.159 194.903 354.159C195.391 354.159 195.799 354.242 196.124 354.409C196.454 354.572 196.719 354.777 196.92 355.023C197.124 355.265 197.28 355.504 197.386 355.739H197.46V351.364H199.874V363H197.488V361.602H197.386C197.272 361.845 197.111 362.085 196.903 362.324C196.698 362.559 196.431 362.754 196.102 362.909C195.776 363.064 195.378 363.142 194.908 363.142ZM195.675 361.216C196.066 361.216 196.395 361.11 196.664 360.898C196.937 360.682 197.145 360.381 197.289 359.994C197.437 359.608 197.511 359.155 197.511 358.636C197.511 358.117 197.439 357.667 197.295 357.284C197.151 356.902 196.942 356.606 196.67 356.398C196.397 356.189 196.066 356.085 195.675 356.085C195.278 356.085 194.942 356.193 194.67 356.409C194.397 356.625 194.191 356.924 194.05 357.307C193.91 357.689 193.84 358.133 193.84 358.636C193.84 359.144 193.91 359.593 194.05 359.983C194.194 360.369 194.401 360.672 194.67 360.892C194.942 361.108 195.278 361.216 195.675 361.216ZM205.567 363V354.273H207.988V363H205.567ZM206.783 353.148C206.424 353.148 206.115 353.028 205.857 352.79C205.603 352.547 205.477 352.258 205.477 351.92C205.477 351.587 205.603 351.301 205.857 351.062C206.115 350.82 206.424 350.699 206.783 350.699C207.143 350.699 207.45 350.82 207.704 351.062C207.961 351.301 208.09 351.587 208.09 351.92C208.09 352.258 207.961 352.547 207.704 352.79C207.45 353.028 207.143 353.148 206.783 353.148ZM209.927 363V354.273H212.234V355.812H212.336C212.518 355.301 212.821 354.898 213.245 354.602C213.669 354.307 214.177 354.159 214.768 354.159C215.366 354.159 215.876 354.309 216.296 354.608C216.717 354.903 216.997 355.305 217.137 355.812H217.228C217.406 355.312 217.728 354.913 218.194 354.614C218.664 354.311 219.219 354.159 219.859 354.159C220.673 354.159 221.334 354.419 221.842 354.938C222.353 355.453 222.609 356.184 222.609 357.131V363H220.194V357.608C220.194 357.123 220.065 356.759 219.808 356.517C219.55 356.275 219.228 356.153 218.842 356.153C218.402 356.153 218.059 356.294 217.813 356.574C217.567 356.85 217.444 357.216 217.444 357.67V363H215.097V357.557C215.097 357.129 214.974 356.788 214.728 356.534C214.486 356.28 214.165 356.153 213.768 356.153C213.499 356.153 213.256 356.222 213.04 356.358C212.828 356.491 212.66 356.678 212.535 356.92C212.41 357.159 212.347 357.439 212.347 357.761V363H209.927ZM227.009 363.165C226.452 363.165 225.956 363.068 225.521 362.875C225.085 362.678 224.74 362.388 224.487 362.006C224.237 361.619 224.112 361.138 224.112 360.562C224.112 360.078 224.201 359.67 224.379 359.341C224.557 359.011 224.799 358.746 225.106 358.545C225.413 358.345 225.761 358.193 226.151 358.091C226.545 357.989 226.958 357.917 227.39 357.875C227.897 357.822 228.307 357.773 228.617 357.727C228.928 357.678 229.153 357.606 229.293 357.511C229.433 357.417 229.504 357.277 229.504 357.091V357.057C229.504 356.697 229.39 356.419 229.163 356.222C228.939 356.025 228.621 355.926 228.208 355.926C227.772 355.926 227.426 356.023 227.168 356.216C226.911 356.405 226.74 356.644 226.657 356.932L224.418 356.75C224.532 356.22 224.755 355.761 225.089 355.375C225.422 354.985 225.852 354.686 226.379 354.477C226.909 354.265 227.522 354.159 228.219 354.159C228.704 354.159 229.168 354.216 229.612 354.33C230.058 354.443 230.454 354.619 230.799 354.858C231.147 355.097 231.422 355.403 231.623 355.778C231.824 356.15 231.924 356.595 231.924 357.114V363H229.629V361.79H229.56C229.42 362.062 229.233 362.303 228.998 362.511C228.763 362.716 228.481 362.877 228.151 362.994C227.822 363.108 227.441 363.165 227.009 363.165ZM227.702 361.494C228.058 361.494 228.373 361.424 228.646 361.284C228.918 361.14 229.132 360.947 229.288 360.705C229.443 360.462 229.521 360.187 229.521 359.881V358.955C229.445 359.004 229.341 359.049 229.208 359.091C229.079 359.129 228.933 359.165 228.771 359.199C228.608 359.229 228.445 359.258 228.282 359.284C228.119 359.307 227.971 359.328 227.839 359.347C227.555 359.388 227.307 359.455 227.094 359.545C226.882 359.636 226.718 359.759 226.6 359.915C226.483 360.066 226.424 360.256 226.424 360.483C226.424 360.812 226.543 361.064 226.782 361.239C227.024 361.409 227.331 361.494 227.702 361.494ZM237.734 366.455C236.95 366.455 236.277 366.347 235.717 366.131C235.16 365.919 234.717 365.629 234.387 365.261C234.058 364.894 233.844 364.481 233.745 364.023L235.984 363.722C236.052 363.896 236.16 364.059 236.308 364.21C236.455 364.362 236.65 364.483 236.893 364.574C237.139 364.669 237.438 364.716 237.79 364.716C238.317 364.716 238.751 364.587 239.092 364.33C239.436 364.076 239.609 363.65 239.609 363.051V361.455H239.506C239.4 361.697 239.241 361.926 239.029 362.142C238.817 362.358 238.544 362.534 238.211 362.67C237.878 362.807 237.48 362.875 237.018 362.875C236.362 362.875 235.766 362.723 235.228 362.42C234.694 362.114 234.268 361.646 233.95 361.017C233.635 360.384 233.478 359.585 233.478 358.619C233.478 357.631 233.639 356.805 233.961 356.142C234.283 355.479 234.711 354.983 235.245 354.653C235.783 354.324 236.372 354.159 237.012 354.159C237.501 354.159 237.91 354.242 238.239 354.409C238.569 354.572 238.834 354.777 239.035 355.023C239.239 355.265 239.397 355.504 239.506 355.739H239.597V354.273H242.001V363.085C242.001 363.828 241.819 364.449 241.455 364.949C241.092 365.449 240.588 365.824 239.944 366.074C239.304 366.328 238.567 366.455 237.734 366.455ZM237.785 361.057C238.175 361.057 238.504 360.96 238.773 360.767C239.046 360.57 239.254 360.29 239.398 359.926C239.546 359.559 239.62 359.119 239.62 358.608C239.62 358.097 239.548 357.653 239.404 357.278C239.26 356.9 239.052 356.606 238.779 356.398C238.506 356.189 238.175 356.085 237.785 356.085C237.387 356.085 237.052 356.193 236.779 356.409C236.506 356.621 236.3 356.917 236.16 357.295C236.02 357.674 235.95 358.112 235.95 358.608C235.95 359.112 236.02 359.547 236.16 359.915C236.304 360.278 236.51 360.561 236.779 360.761C237.052 360.958 237.387 361.057 237.785 361.057ZM247.904 363.17C247.006 363.17 246.234 362.989 245.586 362.625C244.942 362.258 244.446 361.739 244.097 361.068C243.749 360.394 243.575 359.597 243.575 358.676C243.575 357.778 243.749 356.991 244.097 356.312C244.446 355.634 244.936 355.106 245.569 354.727C246.205 354.348 246.951 354.159 247.808 354.159C248.383 354.159 248.919 354.252 249.415 354.438C249.915 354.619 250.351 354.894 250.722 355.261C251.097 355.629 251.389 356.091 251.597 356.648C251.806 357.201 251.91 357.848 251.91 358.591V359.256H244.54V357.756H249.631C249.631 357.407 249.556 357.098 249.404 356.83C249.253 356.561 249.042 356.35 248.773 356.199C248.508 356.044 248.2 355.966 247.847 355.966C247.48 355.966 247.154 356.051 246.87 356.222C246.59 356.388 246.37 356.614 246.211 356.898C246.052 357.178 245.97 357.491 245.967 357.835V359.261C245.967 359.693 246.046 360.066 246.205 360.381C246.368 360.695 246.597 360.938 246.893 361.108C247.188 361.278 247.539 361.364 247.944 361.364C248.213 361.364 248.459 361.326 248.683 361.25C248.906 361.174 249.097 361.061 249.256 360.909C249.415 360.758 249.537 360.572 249.62 360.352L251.859 360.5C251.745 361.038 251.512 361.508 251.16 361.909C250.811 362.307 250.361 362.617 249.808 362.841C249.258 363.061 248.624 363.17 247.904 363.17Z" fill="#FFFDFA"/>
</g>
<g filter="url(#filter1_b_951_9689)">
<rect width="360" height="52" fill="#FFFDFA"/>
<path d="M26.0781 35.7012H26.2148C26.8438 35.7012 27.3678 35.6191 27.7871 35.4551C28.2109 35.2865 28.5482 35.054 28.7988 34.7578C29.0495 34.4616 29.2295 34.113 29.3389 33.7119C29.4482 33.3109 29.5029 32.8757 29.5029 32.4062V30.6904C29.5029 30.2848 29.4596 29.9294 29.373 29.624C29.291 29.3141 29.1725 29.0566 29.0176 28.8516C28.8672 28.6419 28.6917 28.4847 28.4912 28.3799C28.2952 28.2751 28.0833 28.2227 27.8555 28.2227C27.6048 28.2227 27.3792 28.2796 27.1787 28.3936C26.9827 28.5029 26.8164 28.6556 26.6797 28.8516C26.5475 29.043 26.445 29.2686 26.3721 29.5283C26.3037 29.7835 26.2695 30.057 26.2695 30.3486C26.2695 30.6221 26.3014 30.8864 26.3652 31.1416C26.4336 31.3923 26.5339 31.6156 26.666 31.8115C26.7982 32.0075 26.9645 32.1624 27.165 32.2764C27.3656 32.3903 27.6003 32.4473 27.8691 32.4473C28.1243 32.4473 28.359 32.3994 28.5732 32.3037C28.7874 32.2035 28.9743 32.069 29.1338 31.9004C29.2933 31.7318 29.4186 31.5426 29.5098 31.333C29.6009 31.1234 29.651 30.9092 29.6602 30.6904L30.2891 30.8818C30.2891 31.2282 30.2161 31.57 30.0703 31.9072C29.929 32.2399 29.7308 32.5452 29.4756 32.8232C29.2249 33.0967 28.931 33.3154 28.5938 33.4795C28.2611 33.6436 27.8988 33.7256 27.5068 33.7256C27.0329 33.7256 26.6136 33.6367 26.249 33.459C25.889 33.2767 25.5882 33.0306 25.3467 32.7207C25.1097 32.4108 24.932 32.0553 24.8135 31.6543C24.695 31.2533 24.6357 30.8317 24.6357 30.3896C24.6357 29.9111 24.7087 29.4622 24.8545 29.043C25.0003 28.6237 25.2122 28.2546 25.4902 27.9355C25.7682 27.612 26.1055 27.3613 26.502 27.1836C26.903 27.0013 27.3564 26.9102 27.8623 26.9102C28.4001 26.9102 28.8717 27.015 29.2773 27.2246C29.6829 27.4342 30.0247 27.7236 30.3027 28.0928C30.5807 28.4619 30.7904 28.8903 30.9316 29.3779C31.0729 29.8656 31.1436 30.3896 31.1436 30.9502V31.5312C31.1436 32.1191 31.0911 32.6865 30.9863 33.2334C30.8815 33.7757 30.7106 34.2793 30.4736 34.7441C30.2412 35.2044 29.9336 35.61 29.5508 35.9609C29.1725 36.3073 28.7077 36.5785 28.1562 36.7744C27.6094 36.9658 26.9668 37.0615 26.2285 37.0615H26.0781V35.7012ZM33.1019 36.1797C33.1019 35.9245 33.1885 35.7103 33.3617 35.5371C33.5349 35.3594 33.7696 35.2705 34.0658 35.2705C34.3666 35.2705 34.6013 35.3594 34.7699 35.5371C34.9431 35.7103 35.0296 35.9245 35.0296 36.1797C35.0296 36.4349 34.9431 36.6491 34.7699 36.8223C34.6013 36.9954 34.3666 37.082 34.0658 37.082C33.7696 37.082 33.5349 36.9954 33.3617 36.8223C33.1885 36.6491 33.1019 36.4349 33.1019 36.1797ZM33.1088 30.3555C33.1088 30.1003 33.1953 29.8861 33.3685 29.7129C33.5417 29.5352 33.7764 29.4463 34.0726 29.4463C34.3734 29.4463 34.6081 29.5352 34.7767 29.7129C34.9499 29.8861 35.0365 30.1003 35.0365 30.3555C35.0365 30.6107 34.9499 30.8249 34.7767 30.998C34.6081 31.1712 34.3734 31.2578 34.0726 31.2578C33.7764 31.2578 33.5417 31.1712 33.3685 30.998C33.1953 30.8249 33.1088 30.6107 33.1088 30.3555ZM38.7517 31.2783H39.7361C40.1189 31.2783 40.4356 31.2122 40.6862 31.0801C40.9415 30.9479 41.1306 30.7656 41.2536 30.5332C41.3767 30.3008 41.4382 30.0342 41.4382 29.7334C41.4382 29.4189 41.3812 29.1501 41.2673 28.9268C41.1579 28.6989 40.9893 28.5234 40.7614 28.4004C40.5381 28.2773 40.2533 28.2158 39.907 28.2158C39.6153 28.2158 39.351 28.2751 39.114 28.3936C38.8816 28.5075 38.697 28.6715 38.5603 28.8857C38.4236 29.0954 38.3552 29.346 38.3552 29.6377H36.7009C36.7009 29.109 36.8399 28.6396 37.1179 28.2295C37.3959 27.8193 37.7741 27.498 38.2527 27.2656C38.7357 27.0286 39.278 26.9102 39.8796 26.9102C40.5222 26.9102 41.0827 27.0173 41.5612 27.2314C42.0443 27.4411 42.4203 27.7555 42.6892 28.1748C42.9581 28.5941 43.0925 29.1136 43.0925 29.7334C43.0925 30.016 43.0264 30.3031 42.8943 30.5947C42.7621 30.8864 42.5661 31.153 42.3064 31.3945C42.0466 31.6315 41.723 31.8252 41.3357 31.9756C40.9483 32.1214 40.4994 32.1943 39.989 32.1943H38.7517V31.2783ZM38.7517 32.5635V31.6611H39.989C40.5723 31.6611 41.0691 31.7295 41.4792 31.8662C41.8939 32.0029 42.2312 32.1921 42.4909 32.4336C42.7507 32.6706 42.9398 32.9417 43.0583 33.2471C43.1814 33.5524 43.2429 33.876 43.2429 34.2178C43.2429 34.6826 43.1586 35.0973 42.99 35.4619C42.8259 35.8219 42.5912 36.1273 42.2859 36.3779C41.9805 36.6286 41.6228 36.8177 41.2126 36.9453C40.807 37.0729 40.365 37.1367 39.8864 37.1367C39.4581 37.1367 39.0479 37.0775 38.656 36.959C38.264 36.8405 37.9131 36.665 37.6032 36.4326C37.2933 36.1956 37.0473 35.9017 36.865 35.5508C36.6872 35.1953 36.5984 34.7852 36.5984 34.3203H38.2458C38.2458 34.6165 38.3142 34.8786 38.4509 35.1064C38.5922 35.3298 38.7881 35.5052 39.0388 35.6328C39.294 35.7604 39.5857 35.8242 39.9138 35.8242C40.2601 35.8242 40.5586 35.7627 40.8093 35.6396C41.0599 35.5166 41.2514 35.3343 41.3835 35.0928C41.5202 34.8512 41.5886 34.5596 41.5886 34.2178C41.5886 33.8304 41.5134 33.516 41.363 33.2744C41.2126 33.0329 40.9984 32.8551 40.7204 32.7412C40.4424 32.6227 40.1143 32.5635 39.7361 32.5635H38.7517ZM51.5382 31.1895V32.8164C51.5382 33.5957 51.4607 34.2611 51.3057 34.8125C51.1554 35.3594 50.9366 35.8037 50.6495 36.1455C50.3624 36.4873 50.0183 36.738 49.6173 36.8975C49.2208 37.057 48.7764 37.1367 48.2843 37.1367C47.8923 37.1367 47.5277 37.0866 47.1905 36.9863C46.8578 36.8861 46.557 36.7288 46.2882 36.5146C46.0193 36.3005 45.7891 36.0247 45.5977 35.6875C45.4109 35.3457 45.2651 34.9378 45.1602 34.4639C45.06 33.9899 45.0098 33.4408 45.0098 32.8164V31.1895C45.0098 30.4056 45.0873 29.7448 45.2423 29.207C45.3972 28.6647 45.6182 28.2249 45.9054 27.8877C46.1925 27.5459 46.5343 27.2975 46.9307 27.1426C47.3318 26.9876 47.7784 26.9102 48.2706 26.9102C48.6671 26.9102 49.0317 26.9603 49.3643 27.0605C49.7016 27.1562 50.0024 27.3089 50.2667 27.5186C50.5356 27.7282 50.7634 28.0016 50.9503 28.3389C51.1417 28.6715 51.2875 29.0749 51.3878 29.5488C51.488 30.0182 51.5382 30.5651 51.5382 31.1895ZM49.8907 33.0488V30.9434C49.8907 30.5469 49.8679 30.1982 49.8223 29.8975C49.7768 29.5921 49.7084 29.3346 49.6173 29.125C49.5307 28.9108 49.4213 28.7376 49.2891 28.6055C49.157 28.4688 49.0066 28.3708 48.838 28.3115C48.6693 28.2477 48.4802 28.2158 48.2706 28.2158C48.0154 28.2158 47.7875 28.266 47.587 28.3662C47.3865 28.4619 47.2179 28.6169 47.0811 28.8311C46.9444 29.0452 46.8396 29.3278 46.7667 29.6787C46.6983 30.0251 46.6641 30.4466 46.6641 30.9434V33.0488C46.6641 33.4499 46.6869 33.8031 46.7325 34.1084C46.7781 34.4137 46.8464 34.6758 46.9376 34.8945C47.0287 35.1087 47.1381 35.2865 47.2657 35.4277C47.3979 35.5645 47.5483 35.6647 47.7169 35.7285C47.8901 35.7923 48.0792 35.8242 48.2843 35.8242C48.544 35.8242 48.7742 35.7741 48.9747 35.6738C49.1752 35.5736 49.3438 35.4141 49.4805 35.1953C49.6173 34.972 49.7198 34.6826 49.7882 34.3271C49.8565 33.9717 49.8907 33.5456 49.8907 33.0488Z" fill="black"/>
<path opacity="0.1" d="M298.5 26.417C295.1 26.417 292.125 27.9045 290 30.242L298.5 40.5837L307 30.242C304.875 27.9045 301.9 26.417 298.5 26.417Z" fill="black"/>
<path d="M321.583 26.417L307.417 40.5837H321.583V26.417Z" fill="black"/>
<path opacity="0.3" d="M333.5 26H330.5V27.5H329C328.448 27.5 328 28.0037 328 28.625V39.875C328 40.4963 328.448 41 329 41H335C335.552 41 336 40.4963 336 39.875V28.625C336 28.0037 335.552 27.5 335 27.5H333.5V26Z" fill="black"/>
<path d="M328 34C328 34.5833 328 39.3667 328 39.95C328 40.5299 328.448 41 329 41H335C335.552 41 336 40.5299 336 39.95C336 39.3667 336 34.5833 336 34H328Z" fill="black"/>
</g>
</g>
<defs>
<filter id="filter0_dd_951_9689" x="28" y="327" width="304" height="62" filterUnits="userSpaceOnUse" color-interpolation-filters="sRGB">
<feFlood flood-opacity="0" result="BackgroundImageFix"/>
<feColorMatrix in="SourceAlpha" type="matrix" values="0 0 0 0 0 0 0 0 0 0 0 0 0 0 0 0 0 0 127 0" result="hardAlpha"/>
<feOffset dy="1"/>
<feGaussianBlur stdDeviation="1"/>
<feComposite in2="hardAlpha" operator="out"/>
<feColorMatrix type="matrix" values="0 0 0 0 0.968627 0 0 0 0 0.560784 0 0 0 0 0.117647 0 0 0 0.3 0"/>
<feBlend mode="normal" in2="BackgroundImageFix" result="effect1_dropShadow_951_9689"/>
<feColorMatrix in="SourceAlpha" type="matrix" values="0 0 0 0 0 0 0 0 0 0 0 0 0 0 0 0 0 0 127 0" result="hardAlpha"/>
<feOffset dy="1"/>
<feGaussianBlur stdDeviation="1.5"/>
<feComposite in2="hardAlpha" operator="out"/>
<feColorMatrix type="matrix" values="0 0 0 0 0.968627 0 0 0 0 0.560784 0 0 0 0 0.117647 0 0 0 0.15 0"/>
<feBlend mode="normal" in2="effect1_dropShadow_951_9689" result="effect2_dropShadow_951_9689"/>
<feBlend mode="normal" in="SourceGraphic" in2="effect2_dropShadow_951_9689" result="shape"/>
</filter>
<filter id="filter1_b_951_9689" x="-4" y="-4" width="368" height="60" filterUnits="userSpaceOnUse" color-interpolation-filters="sRGB">
<feFlood flood-opacity="0" result="BackgroundImageFix"/>
<feGaussianBlur in="BackgroundImageFix" stdDeviation="2"/>
<feComposite in2="SourceAlpha" operator="in" result="effect1_backgroundBlur_951_9689"/>
<feBlend mode="normal" in="SourceGraphic" in2="effect1_backgroundBlur_951_9689" result="shape"/>
</filter>
<clipPath id="clip0_951_9689">
<rect width="360" height="800" fill="white"/>
</clipPath>
</defs>
</svg>
